# xmcd
#
# Track frame offsets: 
#        150
#        19620
#        42149
#        66941
#        87582
#        109333
#        131756
#        145031
#        165514
#        181641
#        224333
#        247288
#
# Disc length: 3580 seconds
#
# Revision: 0
# Processed by: cddbd v1.5.2PL0 Copyright (c) Steve Scherf et al.
# Submitted via: ExactAudioCopy v1.2
#
DISCID=aa0dfa0c
DTITLE=Tony Coleman - Take Me as I Am
DYEAR=2017
DGENRE=Blues
TTITLE0=Get Ready
TTITLE1=Hook Me Up Baby
TTITLE2=That's What The Blues Is All About
TTITLE3=Blues Come Over Me
TTITLE4=Get Up Out Of Your Seat
TTITLE5=Take Me As I Am
TTITLE6=Nothing But Love For You
TTITLE7=Tony T.C. Cole Man Shuffle
TTITLE8=The Blues Had A Baby
TTITLE9=The Heartbeat Of The Blues
TTITLE10=Dance With Me
TTITLE11=Bye Bye Baby
EXTD=
EXTT0=
EXTT1=
EXTT2=
EXTT3=
EXTT4=
EXTT5=
EXTT6=
EXTT7=
EXTT8=
EXTT9=
EXTT10=
EXTT11=
PLAYORDER=
